# xmcd
#
# Track frame offsets: 
#        150
#        7588
#        21079
#        33203
#        48493
#        58224
#        70331
#        84510
#        98242
#        108836
#        124437
#        134557
#
# Disc length: 1962 seconds
#
# Revision: 6
# Processed by: cddbd v1.5.2PL0 Copyright (c) Steve Scherf et al.
# Submitted via: ExactAudioCopy v1.0b3
#
DISCID=9c07a80c
DTITLE=Costello, Elvis and The Attractions - Almost Blue [Disc 1]
DYEAR=2004
DGENRE=Country
TTITLE0=Why Don't You Love Me (Like You Used To Do)?
TTITLE1=Sweet Dreams
TTITLE2=Success
TTITLE3=I'm Your Toy
TTITLE4=Tonight The Bottle Let Me Down
TTITLE5=Brown To Blue
TTITLE6=Good Year For The Roses
TTITLE7=Sittin' And Thinkin'
TTITLE8=Colour Of The Blues
TTITLE9=Too Far Gone
TTITLE10=Honey Hush
TTITLE11=How Much I Lied
EXTD=spelling corrections YEAR: 1981
EXTT0=
EXTT1=
EXTT2=
EXTT3=
EXTT4=
EXTT5=
EXTT6=
EXTT7=
EXTT8=
EXTT9=
EXTT10=
EXTT11=
PLAYORDER=
